<svg width="24" height="24" viewBox="0 0 24 24" fill="none" xmlns="http://www.w3.org/2000/svg">
<path d="M3.56617 6.21293C4.74365 5.57175 5.71106 4.60435 6.35224 3.42686L8.13533 0.250744C8.17572 0.175 8.23594 0.111662 8.30956 0.0674958C8.38316 0.02333 8.46739 0 8.55324 0C8.63908 0 8.7233 0.02333 8.79692 0.0674958C8.87053 0.111662 8.93075 0.175 8.97114 0.250744L10.6985 3.48259C11.3397 4.66007 12.3071 5.62747 13.4846 6.26866L16.5493 8.19104C16.625 8.23144 16.6883 8.29166 16.7325 8.36527C16.7767 8.43888 16.8 8.52311 16.8 8.60895C16.8 8.6948 16.7767 8.77902 16.7325 8.85263C16.6883 8.92624 16.625 8.98647 16.5493 9.02687L13.3174 10.7542C12.1399 11.3954 11.1725 12.3628 10.5313 13.5403L8.77612 16.5493C8.73572 16.625 8.6755 16.6883 8.60189 16.7325C8.52828 16.7767 8.44406 16.8 8.35821 16.8C8.27237 16.8 8.18814 16.7767 8.11453 16.7325C8.04092 16.6883 7.9807 16.625 7.9403 16.5493L6.21294 13.3174C5.57175 12.1399 4.60435 11.1725 3.42687 10.5313L0.250749 8.74826C0.175003 8.70786 0.111662 8.64764 0.0674973 8.57403C0.0233322 8.50042 0 8.41619 0 8.33035C0 8.24451 0.0233322 8.16028 0.0674973 8.08667C0.111662 8.01306 0.175003 7.95283 0.250749 7.91244L3.56617 6.21293Z" fill="white"/>
<path d="M16.5373 14.4478C16.0793 15.2888 15.3883 15.9798 14.5473 16.4378L12.1791 17.6517C12.125 17.6806 12.0798 17.7236 12.0482 17.7762C12.0167 17.8288 12 17.8889 12 17.9502C12 18.0116 12.0167 18.0717 12.0482 18.1243C12.0798 18.1769 12.125 18.2199 12.1791 18.2488L14.4478 19.5224C15.2888 19.9804 15.9798 20.6714 16.4378 21.5124L17.6716 23.8209C17.7005 23.875 17.7435 23.9202 17.7961 23.9518C17.8487 23.9833 17.9088 24 17.9701 24C18.0315 24 18.0916 23.9833 18.1442 23.9518C18.1968 23.9202 18.2398 23.875 18.2687 23.8209L19.5224 21.6716C19.9804 20.8306 20.6714 20.1396 21.5124 19.6816L23.8209 18.4478C23.875 18.4189 23.9202 18.3759 23.9518 18.3233C23.9833 18.2707 24 18.2106 24 18.1493C24 18.0879 23.9833 18.0278 23.9518 17.9752C23.9202 17.9226 23.875 17.8796 23.8209 17.8507L21.6318 16.4776C20.7908 16.0196 20.0998 15.3286 19.6418 14.4876L18.408 12.1791C18.3791 12.125 18.3361 12.0798 18.2835 12.0482C18.2309 12.0167 18.1708 12 18.1095 12C18.0481 12 17.988 12.0167 17.9354 12.0482C17.8828 12.0798 17.8398 12.125 17.8109 12.1791L16.5373 14.4478Z" fill="white"/>
</svg>
