<svg width="21" height="19" viewBox="0 0 21 19" fill="none" xmlns="http://www.w3.org/2000/svg">
<path fill-rule="evenodd" clip-rule="evenodd" d="M8 16C4.13401 16 1 12.866 1 9C1 5.13401 4.13401 2 8 2C11.866 2 15 5.13401 15 9C15 12.866 11.866 16 8 16ZM8 17C3.58172 17 0 13.4183 0 9C0 4.58172 3.58172 1 8 1C12.4183 1 16 4.58172 16 9C16 13.4183 12.4183 17 8 17Z" fill="url(#paint0_linear_1006_6872)"/>
<path d="M6.37 9.88C6.29667 9.88 6.26 9.84333 6.26 9.77V9.24C6.26 9.16667 6.29667 9.13 6.37 9.13H9.51C9.58333 9.13 9.62 9.16667 9.62 9.24V9.77C9.62 9.84333 9.58333 9.88 9.51 9.88H6.37ZM4.94 12C4.9 12 4.87 11.99 4.85 11.97C4.83667 11.9433 4.83667 11.91 4.85 11.87L7.28 5.09C7.3 5.03 7.34333 5 7.41 5H8.44C8.50667 5 8.55 5.03 8.57 5.09L10.98 11.87C10.9933 11.91 10.99 11.9433 10.97 11.97C10.9567 11.99 10.93 12 10.89 12H10.14C10.08 12 10.04 11.97 10.02 11.91L7.88 5.66L5.78 11.91C5.76 11.97 5.72 12 5.66 12H4.94Z" fill="url(#paint1_linear_1006_6872)"/>
<path d="M18.7313 14.2239C18.9603 14.6444 19.3058 14.9899 19.7264 15.2189L20.9104 15.8259C20.9375 15.8403 20.9601 15.8618 20.9759 15.8881C20.9917 15.9144 21 15.9445 21 15.9751C21 16.0058 20.9917 16.0359 20.9759 16.0622C20.9601 16.0884 20.9375 16.11 20.9104 16.1244L19.7761 16.7612C19.3556 16.9902 19.0101 17.3357 18.7811 17.7562L18.1642 18.9104C18.1498 18.9375 18.1282 18.9601 18.102 18.9759C18.0757 18.9917 18.0456 19 18.0149 19C17.9843 19 17.9542 18.9917 17.9279 18.9759C17.9016 18.9601 17.8801 18.9375 17.8657 18.9104L17.2388 17.8358C17.0098 17.4153 16.6643 17.0698 16.2438 16.8408L15.0896 16.2239C15.0625 16.2095 15.0399 16.1879 15.0241 16.1617C15.0083 16.1354 15 16.1053 15 16.0746C15 16.044 15.0083 16.0139 15.0241 15.9876C15.0399 15.9613 15.0625 15.9398 15.0896 15.9254L16.1841 15.2388C16.6046 15.0098 16.9501 14.6643 17.1791 14.2438L17.796 13.0896C17.8104 13.0625 17.832 13.0399 17.8582 13.0241C17.8845 13.0083 17.9146 13 17.9453 13C17.9759 13 18.006 13.0083 18.0323 13.0241C18.0586 13.0399 18.0801 13.0625 18.0945 13.0896L18.7313 14.2239Z" fill="url(#paint2_linear_1006_6872)"/>
<path d="M18.8915 1.9007L18.1416 1.48366C17.868 1.33411 17.6447 1.10597 17.5003 0.828304L17.0859 0.0637226C17.0773 0.0447092 17.0634 0.0285964 17.0459 0.0173006C17.0284 0.00600433 17.008 0 16.9873 0C16.9665 0 16.9461 0.00600433 16.9286 0.0173006C16.9112 0.0285964 16.8973 0.0447092 16.8886 0.0637226L16.4742 0.818374C16.3256 1.09379 16.0989 1.31847 15.823 1.4638L15.0633 1.9007C15.0444 1.90942 15.0284 1.92341 15.0172 1.94101C15.006 1.95861 15 1.97909 15 2C15 2.02092 15.006 2.04139 15.0172 2.05899C15.0284 2.07659 15.0444 2.09058 15.0633 2.0993L15.8132 2.51634C16.0868 2.66589 16.3101 2.89403 16.4545 3.1717L16.8689 3.93628C16.8775 3.95529 16.8914 3.9714 16.9089 3.9827C16.9264 3.994 16.9467 4 16.9675 4C16.9883 4 17.0087 3.994 17.0261 3.9827C17.0436 3.9714 17.0575 3.95529 17.0662 3.93628L17.4806 3.18163C17.6292 2.90621 17.8559 2.68153 18.1318 2.5362L18.8915 2.11916C18.9203 2.11916 18.9479 2.10765 18.9682 2.08716C18.9886 2.06668 19 2.0389 19 2.00993C19 1.98096 18.9886 1.95318 18.9682 1.9327C18.9479 1.91221 18.9203 1.9007 18.8915 1.9007Z" fill="url(#paint3_linear_1006_6872)"/>
<defs>
<linearGradient id="paint0_linear_1006_6872" x1="-0.0544042" y1="-0.86364" x2="21.3002" y2="-1.55103" gradientUnits="userSpaceOnUse">
<stop stop-color="#3719E2"/>
<stop offset="0.630799" stop-color="#192EE3"/>
<stop offset="1" stop-color="#1579E3"/>
</linearGradient>
<linearGradient id="paint1_linear_1006_6872" x1="-0.0544042" y1="-0.86364" x2="21.3002" y2="-1.55103" gradientUnits="userSpaceOnUse">
<stop stop-color="#3719E2"/>
<stop offset="0.630799" stop-color="#192EE3"/>
<stop offset="1" stop-color="#1579E3"/>
</linearGradient>
<linearGradient id="paint2_linear_1006_6872" x1="-0.0544042" y1="-0.86364" x2="21.3002" y2="-1.55103" gradientUnits="userSpaceOnUse">
<stop stop-color="#3719E2"/>
<stop offset="0.630799" stop-color="#192EE3"/>
<stop offset="1" stop-color="#1579E3"/>
</linearGradient>
<linearGradient id="paint3_linear_1006_6872" x1="-0.0544042" y1="-0.86364" x2="21.3002" y2="-1.55103" gradientUnits="userSpaceOnUse">
<stop stop-color="#3719E2"/>
<stop offset="0.630799" stop-color="#192EE3"/>
<stop offset="1" stop-color="#1579E3"/>
</linearGradient>
</defs>
</svg>
