<svg width="24" height="25" viewBox="0 0 24 25" fill="none" xmlns="http://www.w3.org/2000/svg">
<path d="M4.6204 7.93632C5.6507 7.37528 6.49717 6.5288 7.05821 5.49851L8.61841 2.7194C8.65376 2.65313 8.70645 2.5977 8.77086 2.55906C8.83527 2.52041 8.90897 2.5 8.98408 2.5C9.0592 2.5 9.13289 2.52041 9.1973 2.55906C9.26171 2.5977 9.31441 2.65313 9.34975 2.7194L10.8612 5.54726C11.4222 6.57756 12.2687 7.42404 13.299 7.98507L15.9806 9.66716C16.0469 9.70251 16.1023 9.7552 16.1409 9.81961C16.1796 9.88402 16.2 9.95772 16.2 10.0328C16.2 10.1079 16.1796 10.1816 16.1409 10.2461C16.1023 10.3105 16.0469 10.3632 15.9806 10.3985L13.1527 11.9099C12.1224 12.471 11.276 13.3175 10.7149 14.3478L9.17911 16.9806C9.14376 17.0469 9.09106 17.1023 9.02666 17.1409C8.96225 17.1796 8.88855 17.2 8.81343 17.2C8.73832 17.2 8.66462 17.1796 8.60021 17.1409C8.53581 17.1023 8.48311 17.0469 8.44776 16.9806L6.93632 14.1527C6.37528 13.1224 5.52881 12.276 4.49851 11.7149L1.71941 10.1547C1.65313 10.1194 1.5977 10.0667 1.55906 10.0023C1.52042 9.93787 1.5 9.86417 1.5 9.78905C1.5 9.71394 1.52042 9.64024 1.55906 9.57583C1.5977 9.51142 1.65313 9.45873 1.71941 9.42338L4.6204 7.93632Z" fill="#4759F5"/>
<path d="M15.9701 15.1418C15.5694 15.8777 14.9648 16.4823 14.2289 16.8831L12.1567 17.9453C12.1094 17.9705 12.0698 18.0082 12.0422 18.0542C12.0146 18.1002 12 18.1528 12 18.2065C12 18.2601 12.0146 18.3128 12.0422 18.3588C12.0698 18.4048 12.1094 18.4424 12.1567 18.4677L14.1418 19.5821C14.8777 19.9828 15.4823 20.5875 15.8831 21.3234L16.9627 23.3433C16.9879 23.3906 17.0256 23.4302 17.0716 23.4578C17.1176 23.4854 17.1702 23.5 17.2239 23.5C17.2775 23.5 17.3302 23.4854 17.3762 23.4578C17.4222 23.4302 17.4598 23.3906 17.4851 23.3433L18.5821 21.4627C18.9828 20.7268 19.5875 20.1221 20.3234 19.7214L22.3433 18.6418C22.3906 18.6165 22.4302 18.5789 22.4578 18.5329C22.4854 18.4869 22.5 18.4342 22.5 18.3806C22.5 18.3269 22.4854 18.2743 22.4578 18.2283C22.4302 18.1823 22.3906 18.1446 22.3433 18.1194L20.4279 16.9179C19.6919 16.5172 19.0873 15.9125 18.6866 15.1766L17.607 13.1567C17.5817 13.1094 17.5441 13.0698 17.4981 13.0422C17.4521 13.0146 17.3994 13 17.3458 13C17.2921 13 17.2395 13.0146 17.1935 13.0422C17.1475 13.0698 17.1098 13.1094 17.0846 13.1567L15.9701 15.1418Z" fill="#4759F5"/>
</svg>
