<svg width="8" height="8" viewBox="0 0 8 8" fill="none" xmlns="http://www.w3.org/2000/svg">
<path d="M1.18872 2.07098C1.58122 1.85725 1.90368 1.53478 2.11741 1.14229L2.71178 0.0835814C2.72524 0.0583334 2.74531 0.0372205 2.76985 0.0224986C2.79439 0.00777668 2.82246 0 2.85108 0C2.87969 0 2.90777 0.00777668 2.93231 0.0224986C2.95684 0.0372205 2.97692 0.0583334 2.99038 0.0835814L3.56617 1.16086C3.7799 1.55336 4.10237 1.87582 4.49486 2.08955L5.51642 2.73035C5.54167 2.74381 5.56278 2.76389 5.5775 2.78842C5.59222 2.81296 5.6 2.84104 5.6 2.86965C5.6 2.89827 5.59222 2.92634 5.5775 2.95088C5.56278 2.97541 5.54167 2.99549 5.51642 3.00896L4.43914 3.58474C4.04664 3.79847 3.72418 4.12094 3.51045 4.51343L2.92537 5.51642C2.91191 5.54167 2.89183 5.56278 2.8673 5.5775C2.84276 5.59222 2.81469 5.6 2.78607 5.6C2.75746 5.6 2.72938 5.59222 2.70484 5.5775C2.68031 5.56278 2.66023 5.54167 2.64677 5.51642L2.07098 4.43914C1.85725 4.04664 1.53478 3.72418 1.14229 3.51045L0.0835831 2.91609C0.0583344 2.90262 0.0372208 2.88255 0.0224991 2.85801C0.0077774 2.83347 0 2.8054 0 2.77678C0 2.74817 0.0077774 2.72009 0.0224991 2.69556C0.0372208 2.67102 0.0583344 2.65094 0.0835831 2.63748L1.18872 2.07098Z" fill="white"/>
<path d="M1.18872 2.07098C1.58122 1.85725 1.90368 1.53478 2.11741 1.14229L2.71178 0.0835814C2.72524 0.0583334 2.74531 0.0372205 2.76985 0.0224986C2.79439 0.00777668 2.82246 0 2.85108 0C2.87969 0 2.90777 0.00777668 2.93231 0.0224986C2.95684 0.0372205 2.97692 0.0583334 2.99038 0.0835814L3.56617 1.16086C3.7799 1.55336 4.10237 1.87582 4.49486 2.08955L5.51642 2.73035C5.54167 2.74381 5.56278 2.76389 5.5775 2.78842C5.59222 2.81296 5.6 2.84104 5.6 2.86965C5.6 2.89827 5.59222 2.92634 5.5775 2.95088C5.56278 2.97541 5.54167 2.99549 5.51642 3.00896L4.43914 3.58474C4.04664 3.79847 3.72418 4.12094 3.51045 4.51343L2.92537 5.51642C2.91191 5.54167 2.89183 5.56278 2.8673 5.5775C2.84276 5.59222 2.81469 5.6 2.78607 5.6C2.75746 5.6 2.72938 5.59222 2.70484 5.5775C2.68031 5.56278 2.66023 5.54167 2.64677 5.51642L2.07098 4.43914C1.85725 4.04664 1.53478 3.72418 1.14229 3.51045L0.0835831 2.91609C0.0583344 2.90262 0.0372208 2.88255 0.0224991 2.85801C0.0077774 2.83347 0 2.8054 0 2.77678C0 2.74817 0.0077774 2.72009 0.0224991 2.69556C0.0372208 2.67102 0.0583344 2.65094 0.0835831 2.63748L1.18872 2.07098Z" fill="url(#paint0_linear_1_10308)"/>
<path d="M5.51244 4.81592C5.35978 5.09627 5.12944 5.32661 4.84909 5.47927L4.0597 5.88391C4.04167 5.89353 4.02659 5.90787 4.01607 5.9254C4.00556 5.94292 4 5.96298 4 5.98342C4 6.00386 4.00556 6.02391 4.01607 6.04144C4.02659 6.05896 4.04167 6.0733 4.0597 6.08292L4.81592 6.50746C5.09627 6.66013 5.32661 6.89046 5.47927 7.17081L5.89055 7.9403C5.90017 7.95833 5.9145 7.97341 5.93203 7.98393C5.94956 7.99445 5.96961 8 5.99005 8C6.01049 8 6.03054 7.99445 6.04807 7.98393C6.0656 7.97341 6.07993 7.95833 6.08955 7.9403L6.50746 7.22388C6.66013 6.94353 6.89046 6.71319 7.17081 6.56053L7.9403 6.14925C7.95833 6.13964 7.97341 6.1253 7.98393 6.10777C7.99445 6.09024 8 6.07019 8 6.04975C8 6.02931 7.99445 6.00926 7.98393 5.99173C7.97341 5.97421 7.95833 5.95987 7.9403 5.95025L7.21061 5.49254C6.93026 5.33987 6.69993 5.10954 6.54726 4.82919L6.13599 4.0597C6.12637 4.04167 6.11203 4.02659 6.0945 4.01607C6.07698 4.00555 6.05692 4 6.03648 4C6.01605 4 5.99599 4.00555 5.97847 4.01607C5.96094 4.02659 5.9466 4.04167 5.93698 4.0597L5.51244 4.81592Z" fill="white"/>
<path d="M5.51244 4.81592C5.35978 5.09627 5.12944 5.32661 4.84909 5.47927L4.0597 5.88391C4.04167 5.89353 4.02659 5.90787 4.01607 5.9254C4.00556 5.94292 4 5.96298 4 5.98342C4 6.00386 4.00556 6.02391 4.01607 6.04144C4.02659 6.05896 4.04167 6.0733 4.0597 6.08292L4.81592 6.50746C5.09627 6.66013 5.32661 6.89046 5.47927 7.17081L5.89055 7.9403C5.90017 7.95833 5.9145 7.97341 5.93203 7.98393C5.94956 7.99445 5.96961 8 5.99005 8C6.01049 8 6.03054 7.99445 6.04807 7.98393C6.0656 7.97341 6.07993 7.95833 6.08955 7.9403L6.50746 7.22388C6.66013 6.94353 6.89046 6.71319 7.17081 6.56053L7.9403 6.14925C7.95833 6.13964 7.97341 6.1253 7.98393 6.10777C7.99445 6.09024 8 6.07019 8 6.04975C8 6.02931 7.99445 6.00926 7.98393 5.99173C7.97341 5.97421 7.95833 5.95987 7.9403 5.95025L7.21061 5.49254C6.93026 5.33987 6.69993 5.10954 6.54726 4.82919L6.13599 4.0597C6.12637 4.04167 6.11203 4.02659 6.0945 4.01607C6.07698 4.00555 6.05692 4 6.03648 4C6.01605 4 5.99599 4.00555 5.97847 4.01607C5.96094 4.02659 5.9466 4.04167 5.93698 4.0597L5.51244 4.81592Z" fill="url(#paint1_linear_1_10308)"/>
<defs>
<linearGradient id="paint0_linear_1_10308" x1="8" y1="8" x2="0" y2="0" gradientUnits="userSpaceOnUse">
<stop stop-color="#4759F5"/>
<stop offset="1" stop-color="#3BB7F6"/>
</linearGradient>
<linearGradient id="paint1_linear_1_10308" x1="8" y1="8" x2="0" y2="0" gradientUnits="userSpaceOnUse">
<stop stop-color="#4759F5"/>
<stop offset="1" stop-color="#3BB7F6"/>
</linearGradient>
</defs>
</svg>
