<svg width="16" height="20" viewBox="0 0 16 20" fill="none" xmlns="http://www.w3.org/2000/svg">
<path d="M7.86478 0.0195804C7.73417 0.0549545 8.009 -0.214433 3.91558 3.87718C1.24437 6.54656 0.114215 7.68217 0.0860967 7.72389C0.0244187 7.81641 0.00537109 7.88171 0.00537109 8.00053C0.00537109 8.11935 0.0244187 8.18375 0.0879108 8.27899C0.229407 8.49305 0.496981 8.55836 0.738251 8.43863C0.787231 8.41504 1.16093 8.04498 4.14778 5.05904L7.50106 1.70575V10.6327C7.50106 17.0754 7.50378 19.5733 7.51104 19.6078C7.54641 19.7783 7.68973 19.9307 7.86297 19.9815C7.9192 19.9978 8.05526 20.0005 8.11784 19.986C8.28837 19.947 8.44347 19.791 8.48519 19.6141C8.49698 19.5624 8.4988 18.5529 8.4988 10.6309V1.70575L11.853 5.05904C14.8389 8.04498 15.2126 8.41504 15.2616 8.43863C15.3496 8.48307 15.4149 8.49849 15.5056 8.49758C15.6761 8.49577 15.8194 8.41867 15.9119 8.27899C15.9754 8.18375 15.9945 8.11935 15.9945 8.00053C15.9945 7.88171 15.9754 7.81641 15.9138 7.72389C15.8856 7.68217 14.7555 6.54656 12.0843 3.87718C7.97725 -0.228039 8.26569 0.0540475 8.13145 0.0186733C8.06433 0.00143979 7.93009 0.00143979 7.86478 0.0195804Z" fill="white"/>
</svg>
