<svg width="20" height="20" viewBox="0 0 20 20" fill="none" xmlns="http://www.w3.org/2000/svg">
<path d="M0.358136 0.0214193C0.271968 0.0495372 0.21029 0.0867254 0.148612 0.148403C0.049746 0.24727 0.00439453 0.357927 0.00439453 0.49761C0.00439453 0.58922 0.018 0.651805 0.0551882 0.728902C0.0760499 0.773347 1.2307 1.93162 9.63614 10.338C16.4343 17.1371 19.2071 19.9053 19.2425 19.9262C19.3205 19.9743 19.3722 19.9888 19.4792 19.9933C19.5527 19.996 19.589 19.9933 19.6289 19.9815C19.8012 19.9316 19.93 19.8037 19.9808 19.6332C19.999 19.5715 19.9999 19.4364 19.9817 19.3702C19.9482 19.2441 19.9917 19.2913 18.9586 18.2563L17.9962 17.2931L17.9953 17.1452C17.9944 17.0264 17.9899 16.9838 17.9754 16.9284C17.9318 16.7706 17.8928 16.7035 17.6978 16.4486C17.1092 15.6767 16.662 14.6391 16.5223 13.7176C16.4697 13.3738 16.4733 13.5353 16.467 10.7752C16.4606 7.98967 16.4652 8.20645 16.4071 7.80464C16.2375 6.62459 15.696 5.38106 14.9259 4.40328C14.0262 3.26042 12.8171 2.47403 11.4965 2.17108C11.4239 2.15475 11.3622 2.13933 11.3622 2.13933C11.3604 2.13843 11.3731 2.10124 11.3912 2.05679C11.4656 1.86995 11.4965 1.70668 11.4965 1.50078C11.4965 1.09806 11.355 0.747043 11.0756 0.458608C10.8597 0.236385 10.6103 0.0985168 10.3019 0.0295826C10.2248 0.012349 10.1858 0.00962793 9.99986 0.00962793C9.79759 0.00872091 9.78126 0.010535 9.67786 0.0350248C9.37492 0.105773 9.13727 0.240013 8.92412 0.458608C8.69827 0.692621 8.56312 0.965637 8.51596 1.28673C8.496 1.42097 8.50235 1.67584 8.52956 1.79829C8.54952 1.89444 8.5858 2.00781 8.61936 2.084C8.63206 2.11212 8.64022 2.13752 8.63841 2.13843C8.63659 2.14024 8.57582 2.15475 8.50326 2.17108C7.62616 2.37244 6.75814 2.80691 6.04158 3.40464C5.73229 3.66314 5.3341 4.06768 5.13365 4.328C5.11369 4.3543 5.09374 4.37516 5.08829 4.37607C5.08376 4.37607 4.11233 3.40917 2.92956 2.22731C0.611197 -0.0901453 0.758136 0.0513513 0.629338 0.0177912C0.560404 -0.00125642 0.420721 0.00146467 0.358136 0.0214193ZM10.2674 3.00645C10.6738 3.02731 10.9858 3.07357 11.3559 3.167C11.6924 3.25135 11.9953 3.36473 12.3264 3.528C12.8461 3.78468 13.2461 4.07493 13.6833 4.51122C14.1468 4.97561 14.5005 5.46723 14.8062 6.07221C15.1554 6.76246 15.3668 7.45362 15.4484 8.17199C15.462 8.29534 15.4638 8.53752 15.4692 10.8477C15.4756 13.606 15.472 13.4309 15.5246 13.8046C15.579 14.1928 15.6942 14.6627 15.8266 15.0355C15.8493 15.0999 15.8647 15.1516 15.8611 15.1516C15.8502 15.1516 5.80938 5.10713 5.80938 5.09534C5.80938 5.08264 5.91369 4.94931 6.03705 4.806C6.14589 4.67902 6.40167 4.4187 6.5341 4.29988C7.05836 3.83094 7.67151 3.47448 8.32095 3.26042C8.92594 3.06178 9.60711 2.97289 10.2674 3.00645ZM3.98716 6.32255C3.79759 6.81779 3.66063 7.33117 3.5926 7.80464C3.53455 8.20645 3.53909 7.98967 3.53274 10.7797C3.52639 13.548 3.53002 13.3702 3.47741 13.7185C3.33863 14.6373 2.89056 15.6767 2.3019 16.4486C2.10689 16.7035 2.06789 16.7715 2.02435 16.9284C1.99714 17.0291 1.99805 17.2486 2.02526 17.3511C2.1078 17.6541 2.3409 17.8881 2.64839 17.9743L2.72095 17.9951L7.17083 18.0042L7.21528 18.1158C7.31596 18.367 7.49011 18.6663 7.65428 18.8704C8.09963 19.4237 8.72095 19.8028 9.41029 19.9407C9.76312 20.0114 10.1994 20.0151 10.5486 19.9489C11.0438 19.8563 11.4874 19.6504 11.8956 19.3257C12.0107 19.2332 12.2357 19.0074 12.3346 18.884C12.5096 18.6654 12.681 18.3733 12.7844 18.1158L12.8289 18.0042L14.3536 18.0015C15.1917 18.0006 15.8774 17.9969 15.8774 17.9924C15.8774 17.9888 15.6561 17.7647 15.3849 17.4935L14.8933 17.0019L3.14362 16.9974L3.22072 16.8885C3.55814 16.4151 3.89192 15.7847 4.1087 15.2105C4.31823 14.6572 4.4443 14.1284 4.50961 13.5325C4.52322 13.4001 4.52503 13.1706 4.53047 10.8477C4.53682 8.04228 4.53229 8.24636 4.59487 7.86813C4.64022 7.5933 4.69011 7.38106 4.77628 7.09988C4.80077 7.01915 4.82072 6.9475 4.82072 6.94115C4.82072 6.92754 4.06789 6.17199 4.05428 6.17199C4.04884 6.17199 4.01891 6.24001 3.98716 6.32255ZM11.7268 18.0105C11.6906 18.074 11.5917 18.2119 11.5346 18.2817C11.2262 18.65 10.7953 18.8949 10.3092 18.9765C10.1731 18.9992 9.82662 18.9992 9.69056 18.9765C9.20439 18.8949 8.77356 18.65 8.46517 18.2817C8.40802 18.2119 8.30916 18.074 8.27287 18.0105C8.26743 18.0024 8.61573 17.9997 9.99986 17.9997C11.384 17.9997 11.7323 18.0024 11.7268 18.0105Z" fill="url(#paint0_linear_1141_13571)"/>
<defs>
<linearGradient id="paint0_linear_1141_13571" x1="-0.0473944" y1="-0.903818" x2="20.2845" y2="-1.49593" gradientUnits="userSpaceOnUse">
<stop stop-color="#3719E2"/>
<stop offset="0.630799" stop-color="#192EE3"/>
<stop offset="1" stop-color="#1579E3"/>
</linearGradient>
</defs>
</svg>
