<svg width="24" height="24" viewBox="0 0 24 24" fill="none" xmlns="http://www.w3.org/2000/svg">
<path fill-rule="evenodd" clip-rule="evenodd" d="M13.5 3.5C13.5 3.72858 13.4489 3.94522 13.3574 4.1391C14.8875 4.46372 16.0659 5.32359 16.8987 6.36794C17.9512 7.68771 18.4688 9.32024 18.4688 10.5938V15.0312C18.4688 16.5722 19.306 17.9809 19.797 18.578C19.9211 18.7289 20 18.9243 20 19.1379C20 19.614 19.614 20 19.1379 20H14.8293C14.4175 21.1652 13.3062 22 12 22C10.6938 22 9.58254 21.1652 9.17071 20H4.8621C4.38597 20 4 19.614 4 19.1379C4 18.9243 4.07889 18.7289 4.20304 18.578C4.69403 17.9809 5.53125 16.5722 5.53125 15.0312V15.0207V15.0102V14.9996V14.9891V14.9785V14.968V14.9575V14.9469V14.9364V14.9259V14.9154V14.9048V14.8943V14.8838V14.8733V14.8628V14.8522V14.8417V14.8312V14.8207V14.8102V14.7997V14.7892V14.7787V14.7682V14.7577V14.7473V14.7368V14.7263V14.7158V14.7053V14.6949V14.6844V14.6739V14.6635V14.653V14.6425V14.6321V14.6216V14.6112V14.6007V14.5903V14.5798V14.5694V14.559V14.5485V14.5381V14.5277V14.5173V14.5068V14.4964V14.486V14.4756V14.4652V14.4548V14.4444V14.434V14.4236V14.4132V14.4029V14.3925V14.3821V14.3717V14.3614V14.351V14.3407V14.3303V14.32V14.3096V14.2993V14.2889V14.2786V14.2683V14.2579V14.2476V14.2373V14.227V14.2167V14.2064V14.1961V14.1858V14.1755V14.1652V14.1549V14.1446V14.1344V14.1241V14.1138V14.1036V14.0933V14.0831V14.0728V14.0626V14.0523V14.0421V14.0319V14.0217V14.0114V14.0012V13.991V13.9808V13.9706V13.9604V13.9503V13.9401V13.9299V13.9197V13.9096V13.8994V13.8892V13.8791V13.869V13.8588V13.8487V13.8386V13.8284V13.8183V13.8082V13.7981V13.788V13.7779V13.7678V13.7577V13.7477V13.7376V13.7275V13.7175V13.7074V13.6974V13.6873V13.6773V13.6673V13.6572V13.6472V13.6372V13.6272V13.6172V13.6072V13.5972V13.5873V13.5773V13.5673V13.5574V13.5474V13.5375V13.5275V13.5176V13.5077V13.4977V13.4878V13.4779V13.468V13.4581V13.4482V13.4384V13.4285V13.4186V13.4088V13.3989V13.3891V13.3792V13.3694V13.3596V13.3498V13.3399V13.3301V13.3203V13.3106V13.3008V13.291V13.2812V13.2715V13.2617V13.252V13.2422V13.2325V13.2228V13.2131V13.2034V13.1937V13.184V13.1743V13.1646V13.1549V13.1453V13.1356V13.126V13.1164V13.1067V13.0971V13.0875V13.0779V13.0683V13.0587V13.0491V13.0395V13.03V13.0204V13.0109V13.0013V12.9918V12.9823V12.9728V12.9632V12.9538V12.9443V12.9348V12.9253V12.9158V12.9064V12.8969V12.8875V12.8781V12.8686V12.8592V12.8498V12.8404V12.831V12.8217V12.8123V12.8029V12.7936V12.7843V12.7749V12.7656V12.7563V12.747V12.7377V12.7284V12.7191V12.7098V12.7006V12.6913V12.6821V12.6729V12.6636V12.6544V12.6452V12.636V12.6269V12.6177V12.6085V12.5994V12.5902V12.5811V12.572V12.5628V12.5537V12.5446V12.5356V12.5265V12.5174V12.5084V12.4993V12.4903V12.4812V12.4722V12.4632V12.4542V12.4452V12.4363V12.4273V12.4184V12.4094V12.4005V12.3916V12.3826V12.3737V12.3648V12.356V12.3471V12.3382V12.3294V12.3205V12.3117V12.3029V12.2941V12.2853V12.2765V12.2677V12.259V12.2502V12.2415V12.2327V12.224V12.2153V12.2066V12.1979V12.1893V12.1806V12.1719V12.1633V12.1547V12.146V12.1374V12.1288V12.1203V12.1117V12.1031V12.0946V12.086V12.0775V12.069V12.0605V12.052V12.0435V12.035V12.0266V12.0181V12.0097V12.0013V11.9929V11.9845V11.9761V11.9677V11.9594V11.951V11.9427V11.9343V11.926V11.9177V11.9094V11.9012V11.8929V11.8846V11.8764V11.8682V11.86V11.8518V11.8436V11.8354V11.8272V11.8191V11.8109V11.8028V11.7947V11.7866V11.7785V11.7704V11.7624V11.7543V11.7463V11.7382V11.7302V11.7222V11.7142V11.7063V11.6983V11.6904V11.6824V11.6745V11.6666V11.6587V11.6508V11.643V11.6351V11.6273V11.6194V11.6116V11.6038V11.596V11.5883V11.5805V11.5727V11.565V11.5573V11.5496V11.5419V11.5342V11.5265V11.5189V11.5113V11.5036V11.496V11.4884V11.4808V11.4733V11.4657V11.4582V11.4507V11.4432V11.4357V11.4282V11.4207V11.4132V11.4058V11.3984V11.391V11.3836V11.3762V11.3688V11.3615V11.3541V11.3468V11.3395V11.3322V11.3249V11.3177V11.3104V11.3032V11.2959V11.2887V11.2815V11.2744V11.2672V11.2601V11.2529V11.2458V11.2387V11.2316V11.2245V11.2175V11.2104V11.2034V11.1964V11.1894V11.1824V11.1755V11.1685V11.1616V11.1547V11.1478V11.1409V11.134V11.1271V11.1203V11.1135V11.1067V11.0999V11.0931V11.0863V11.0796V11.0728V11.0661V11.0594V11.0527V11.0461V11.0394V11.0328V11.0262V11.0196V11.013V11.0064V10.9998V10.9933V10.9868V10.9803V10.9738V10.9673V10.9608V10.9544V10.948V10.9416V10.9352V10.9288V10.9224V10.9161V10.9098V10.9035V10.8972V10.8909V10.8846V10.8784V10.8722V10.866V10.8598V10.8536V10.8474V10.8413V10.8352V10.8291V10.823V10.8169V10.8108V10.8048V10.7988V10.7928V10.7868V10.7808V10.7749V10.7689V10.763V10.7571V10.7512V10.7454V10.7395V10.7337V10.7279V10.7221V10.7163V10.7106V10.7048V10.6991V10.6934V10.6877V10.682V10.6764V10.6707V10.6651V10.6595V10.6539V10.6484V10.6428V10.6373V10.6318V10.6263V10.6208V10.6154V10.6099V10.6045V10.5991V10.5938C5.53125 9.32024 6.0488 7.68771 7.10127 6.36794C7.93411 5.32359 9.11245 4.46372 10.6426 4.1391C10.5511 3.94521 10.5 3.72858 10.5 3.5C10.5 2.67157 11.1716 2 12 2C12.8284 2 13.5 2.67157 13.5 3.5ZM9 19H10H14H15H18.8588C18.2817 18.2193 17.4688 16.7211 17.4688 15.0312V10.5938C17.4688 9.55476 17.0332 8.14042 16.1169 6.99143C15.2124 5.85728 13.8566 5 12 5C10.1434 5 8.78755 5.85728 7.8831 6.99143C6.96682 8.14042 6.53125 9.55476 6.53125 10.5938V10.5991V10.6045V10.6099V10.6154V10.6208V10.6263V10.6318V10.6373V10.6428V10.6484V10.6539V10.6595V10.6651V10.6707V10.6764V10.682V10.6877V10.6934V10.6991V10.7048V10.7106V10.7163V10.7221V10.7279V10.7337V10.7395V10.7454V10.7512V10.7571V10.763V10.7689V10.7749V10.7808V10.7868V10.7928V10.7988V10.8048V10.8108V10.8169V10.823V10.8291V10.8352V10.8413V10.8474V10.8536V10.8598V10.866V10.8722V10.8784V10.8846V10.8909V10.8972V10.9035V10.9098V10.9161V10.9224V10.9288V10.9352V10.9416V10.948V10.9544V10.9608V10.9673V10.9738V10.9803V10.9868V10.9933V10.9998V11.0064V11.013V11.0196V11.0262V11.0328V11.0394V11.0461V11.0527V11.0594V11.0661V11.0728V11.0796V11.0863V11.0931V11.0999V11.1067V11.1135V11.1203V11.1271V11.134V11.1409V11.1478V11.1547V11.1616V11.1685V11.1755V11.1824V11.1894V11.1964V11.2034V11.2104V11.2175V11.2245V11.2316V11.2387V11.2458V11.2529V11.2601V11.2672V11.2744V11.2815V11.2887V11.2959V11.3032V11.3104V11.3177V11.3249V11.3322V11.3395V11.3468V11.3541V11.3615V11.3688V11.3762V11.3836V11.391V11.3984V11.4058V11.4132V11.4207V11.4282V11.4357V11.4432V11.4507V11.4582V11.4657V11.4733V11.4808V11.4884V11.496V11.5036V11.5113V11.5189V11.5265V11.5342V11.5419V11.5496V11.5573V11.565V11.5727V11.5805V11.5883V11.596V11.6038V11.6116V11.6194V11.6273V11.6351V11.643V11.6508V11.6587V11.6666V11.6745V11.6824V11.6904V11.6983V11.7063V11.7142V11.7222V11.7302V11.7382V11.7463V11.7543V11.7624V11.7704V11.7785V11.7866V11.7947V11.8028V11.8109V11.8191V11.8272V11.8354V11.8436V11.8518V11.86V11.8682V11.8764V11.8846V11.8929V11.9012V11.9094V11.9177V11.926V11.9343V11.9427V11.951V11.9594V11.9677V11.9761V11.9845V11.9929V12.0013V12.0097V12.0181V12.0266V12.035V12.0435V12.052V12.0605V12.069V12.0775V12.086V12.0946V12.1031V12.1117V12.1203V12.1288V12.1374V12.146V12.1547V12.1633V12.1719V12.1806V12.1893V12.1979V12.2066V12.2153V12.224V12.2327V12.2415V12.2502V12.259V12.2677V12.2765V12.2853V12.2941V12.3029V12.3117V12.3205V12.3294V12.3382V12.3471V12.356V12.3648V12.3737V12.3826V12.3916V12.4005V12.4094V12.4184V12.4273V12.4363V12.4452V12.4542V12.4632V12.4722V12.4812V12.4903V12.4993V12.5084V12.5174V12.5265V12.5356V12.5446V12.5537V12.5628V12.572V12.5811V12.5902V12.5994V12.6085V12.6177V12.6269V12.636V12.6452V12.6544V12.6636V12.6729V12.6821V12.6913V12.7006V12.7098V12.7191V12.7284V12.7377V12.747V12.7563V12.7656V12.7749V12.7843V12.7936V12.8029V12.8123V12.8217V12.831V12.8404V12.8498V12.8592V12.8686V12.8781V12.8875V12.8969V12.9064V12.9158V12.9253V12.9348V12.9443V12.9538V12.9632V12.9728V12.9823V12.9918V13.0013V13.0109V13.0204V13.03V13.0395V13.0491V13.0587V13.0683V13.0779V13.0875V13.0971V13.1067V13.1164V13.126V13.1356V13.1453V13.1549V13.1646V13.1743V13.184V13.1937V13.2034V13.2131V13.2228V13.2325V13.2422V13.252V13.2617V13.2715V13.2812V13.291V13.3008V13.3106V13.3203V13.3301V13.3399V13.3498V13.3596V13.3694V13.3792V13.3891V13.3989V13.4088V13.4186V13.4285V13.4384V13.4482V13.4581V13.468V13.4779V13.4878V13.4977V13.5077V13.5176V13.5275V13.5375V13.5474V13.5574V13.5673V13.5773V13.5873V13.5972V13.6072V13.6172V13.6272V13.6372V13.6472V13.6572V13.6673V13.6773V13.6873V13.6974V13.7074V13.7175V13.7275V13.7376V13.7477V13.7577V13.7678V13.7779V13.788V13.7981V13.8082V13.8183V13.8284V13.8386V13.8487V13.8588V13.869V13.8791V13.8892V13.8994V13.9096V13.9197V13.9299V13.9401V13.9503V13.9604V13.9706V13.9808V13.991V14.0012V14.0114V14.0217V14.0319V14.0421V14.0523V14.0626V14.0728V14.0831V14.0933V14.1036V14.1138V14.1241V14.1344V14.1446V14.1549V14.1652V14.1755V14.1858V14.1961V14.2064V14.2167V14.227V14.2373V14.2476V14.2579V14.2683V14.2786V14.2889V14.2993V14.3096V14.32V14.3303V14.3407V14.351V14.3614V14.3717V14.3821V14.3925V14.4029V14.4132V14.4236V14.434V14.4444V14.4548V14.4652V14.4756V14.486V14.4964V14.5068V14.5173V14.5277V14.5381V14.5485V14.559V14.5694V14.5798V14.5903V14.6007V14.6112V14.6216V14.6321V14.6425V14.653V14.6635V14.6739V14.6844V14.6949V14.7053V14.7158V14.7263V14.7368V14.7473V14.7577V14.7682V14.7787V14.7892V14.7997V14.8102V14.8207V14.8312V14.8417V14.8522V14.8628V14.8733V14.8838V14.8943V14.9048V14.9154V14.9259V14.9364V14.9469V14.9575V14.968V14.9785V14.9891V14.9996V15.0102V15.0207V15.0312C6.53125 16.7211 5.71829 18.2193 5.14121 19H9ZM13.7324 20H10.2676C10.6134 20.5978 11.2597 21 12 21C12.7403 21 13.3866 20.5978 13.7324 20Z" fill="black"/>
</svg>
