<svg width="24" height="24" viewBox="0 0 24 24" fill="none" xmlns="http://www.w3.org/2000/svg">
<path d="M4.6204 7.43632C5.6507 6.87528 6.49717 6.0288 7.05821 4.99851L8.61841 2.2194C8.65376 2.15313 8.70645 2.0977 8.77086 2.05906C8.83527 2.02041 8.90897 2 8.98408 2C9.0592 2 9.13289 2.02041 9.1973 2.05906C9.26171 2.0977 9.31441 2.15313 9.34975 2.2194L10.8612 5.04726C11.4222 6.07756 12.2687 6.92404 13.299 7.48507L15.9806 9.16716C16.0469 9.20251 16.1023 9.2552 16.1409 9.31961C16.1796 9.38402 16.2 9.45772 16.2 9.53283C16.2 9.60795 16.1796 9.68165 16.1409 9.74605C16.1023 9.81046 16.0469 9.86316 15.9806 9.89851L13.1527 11.4099C12.1224 11.971 11.276 12.8175 10.7149 13.8478L9.17911 16.4806C9.14376 16.5469 9.09106 16.6023 9.02666 16.6409C8.96225 16.6796 8.88855 16.7 8.81343 16.7C8.73832 16.7 8.66462 16.6796 8.60021 16.6409C8.53581 16.6023 8.48311 16.5469 8.44776 16.4806L6.93632 13.6527C6.37528 12.6224 5.52881 11.776 4.49851 11.2149L1.71941 9.65472C1.65313 9.61938 1.5977 9.56668 1.55906 9.50228C1.52042 9.43787 1.5 9.36417 1.5 9.28905C1.5 9.21394 1.52042 9.14024 1.55906 9.07583C1.5977 9.01142 1.65313 8.95873 1.71941 8.92338L4.6204 7.43632Z" fill="black"/>
<path d="M15.9701 14.6418C15.5694 15.3777 14.9648 15.9823 14.2289 16.3831L12.1567 17.4453C12.1094 17.4705 12.0698 17.5082 12.0422 17.5542C12.0146 17.6002 12 17.6528 12 17.7065C12 17.7601 12.0146 17.8128 12.0422 17.8588C12.0698 17.9048 12.1094 17.9424 12.1567 17.9677L14.1418 19.0821C14.8777 19.4828 15.4823 20.0875 15.8831 20.8234L16.9627 22.8433C16.9879 22.8906 17.0256 22.9302 17.0716 22.9578C17.1176 22.9854 17.1702 23 17.2239 23C17.2775 23 17.3302 22.9854 17.3762 22.9578C17.4222 22.9302 17.4598 22.8906 17.4851 22.8433L18.5821 20.9627C18.9828 20.2268 19.5875 19.6221 20.3234 19.2214L22.3433 18.1418C22.3906 18.1165 22.4302 18.0789 22.4578 18.0329C22.4854 17.9869 22.5 17.9342 22.5 17.8806C22.5 17.8269 22.4854 17.7743 22.4578 17.7283C22.4302 17.6823 22.3906 17.6446 22.3433 17.6194L20.4279 16.4179C19.6919 16.0172 19.0873 15.4125 18.6866 14.6766L17.607 12.6567C17.5817 12.6094 17.5441 12.5698 17.4981 12.5422C17.4521 12.5146 17.3994 12.5 17.3458 12.5C17.2921 12.5 17.2395 12.5146 17.1935 12.5422C17.1475 12.5698 17.1098 12.6094 17.0846 12.6567L15.9701 14.6418Z" fill="black"/>
</svg>
