<svg width="24" height="24" viewBox="0 0 24 24" fill="none" xmlns="http://www.w3.org/2000/svg">
<path fill-rule="evenodd" clip-rule="evenodd" d="M12 22C17.5228 22 22 17.5228 22 12C22 6.47715 17.5228 2 12 2C6.47715 2 2 6.47715 2 12C2 17.5228 6.47715 22 12 22ZM17.1348 9.57231C17.3301 9.37705 17.3301 9.06047 17.1348 8.86521C16.9396 8.66994 16.623 8.66994 16.4277 8.86521L10 15.2929L6.85355 12.1464C6.65829 11.9512 6.34171 11.9512 6.14645 12.1464C5.95118 12.3417 5.95118 12.6583 6.14645 12.8535L9.64647 16.3536C9.84173 16.5488 10.1583 16.5488 10.3536 16.3536L17.1348 9.57231Z" fill="#4759F5"/>
</svg>
