<svg width="18" height="13" viewBox="0 0 18 13" fill="none" xmlns="http://www.w3.org/2000/svg">
<path d="M17.3764 0.0139659C17.3564 0.019408 17.3093 0.0375486 17.2721 0.0556892C17.205 0.0883423 17.1315 0.160905 11.6004 5.69016L5.9977 11.292L3.39633 8.69242C1.71289 7.00898 0.781368 6.08381 0.754158 6.06839C0.557332 5.95682 0.322412 5.98494 0.158239 6.14004C0.0457675 6.24526 -0.00411912 6.37315 0.00495118 6.53007C0.0103934 6.62984 0.0394183 6.71238 0.0965612 6.7922C0.119237 6.82213 1.38908 8.09923 2.92014 9.62848C5.92876 12.6344 5.72831 12.4412 5.86618 12.4811C5.93239 12.5001 6.04758 12.5019 6.11561 12.4856C6.14282 12.4784 6.19452 12.4593 6.22899 12.4421C6.28976 12.4122 6.55461 12.1482 12.0938 6.60988C16.2544 2.45025 17.9034 0.794918 17.9251 0.759544C17.9424 0.731426 17.9641 0.686075 17.9732 0.657957C17.9959 0.593558 18.0031 0.47383 17.9886 0.40036C17.9551 0.224397 17.8127 0.0702017 17.6358 0.018501C17.5814 0.00217447 17.4372 0.000360414 17.3764 0.0139659Z" fill="#2C3798"/>
</svg>
