<svg width="24" height="25" viewBox="0 0 24 25" fill="none" xmlns="http://www.w3.org/2000/svg">
<path d="M5.10798 5.33816C4.99463 5.3835 4.88128 5.49987 4.83745 5.61625C4.79211 5.73564 4.79815 5.91398 4.84954 6.01675C4.87523 6.06663 5.75936 6.95983 8.08984 9.29182L11.2969 12.5004L8.08984 15.7074C4.53065 19.2681 4.80571 18.9764 4.80571 19.1911C4.80571 19.4102 4.9236 19.5916 5.11553 19.6626C5.23493 19.7079 5.41327 19.7019 5.51604 19.6505C5.56591 19.6248 6.46062 18.7392 8.79261 16.4102L11.9997 13.2032L15.2082 16.4102C17.4828 18.6833 18.4349 19.6263 18.4833 19.6505C18.5407 19.6807 18.574 19.6868 18.6949 19.6868C18.8626 19.6868 18.9473 19.655 19.05 19.5508C19.1543 19.448 19.1861 19.3634 19.1861 19.1956C19.1861 19.0747 19.18 19.0414 19.1498 18.984C19.1256 18.9356 18.181 17.9805 15.9095 15.7074L12.7024 12.5004L15.9095 9.29182C18.2385 6.96134 19.1241 6.06663 19.1498 6.01675C19.2012 5.91549 19.2072 5.73564 19.1634 5.61927C19.1181 5.49836 19.0032 5.3835 18.8838 5.33816C18.7644 5.29282 18.5861 5.29887 18.4833 5.35025C18.4334 5.37595 17.5402 6.26008 15.2082 8.59056L11.9997 11.7976L8.79261 8.59056C6.46516 6.26461 5.56591 5.37595 5.51604 5.35025C5.41629 5.30038 5.22133 5.29433 5.10798 5.33816Z" fill="#525365"/>
</svg>
