<svg width="18" height="18" viewBox="0 0 18 18" fill="none" xmlns="http://www.w3.org/2000/svg">
<path d="M5.77089 0.0117732C5.55774 0.036263 5.32644 0.105197 5.12236 0.204971C4.71329 0.406331 4.41034 0.708372 4.20626 1.11835C4.10467 1.32334 4.03665 1.55554 4.01216 1.78139C3.99855 1.90565 3.99855 12.0934 4.01216 12.2177C4.06658 12.7156 4.31692 13.1909 4.69515 13.5138C4.82939 13.6281 4.96 13.7143 5.12236 13.7932C5.33461 13.8975 5.55592 13.9628 5.78177 13.9873C5.90603 14.0009 16.0938 14.0009 16.2181 13.9873C16.6135 13.9437 16.9972 13.7769 17.3047 13.5138C17.5115 13.3369 17.6684 13.1329 17.7945 12.8771C17.8979 12.6666 17.9632 12.4435 17.9877 12.2177C18.0013 12.0934 18.0013 1.90565 17.9877 1.78139C17.9632 1.55554 17.8979 1.33241 17.7945 1.12198C17.5931 0.712907 17.2911 0.409959 16.8811 0.205878C16.6761 0.10429 16.4439 0.036263 16.2181 0.0117732C16.1101 -1.81589e-05 5.8761 -1.81589e-05 5.77089 0.0117732ZM16.2389 1.02765C16.4285 1.08025 16.5772 1.16551 16.706 1.29341C16.8339 1.4222 16.9192 1.57096 16.9718 1.76053L16.9954 1.8476V12.1515L16.9718 12.2385C16.9192 12.4272 16.8339 12.5769 16.706 12.7057C16.5772 12.8335 16.4276 12.9188 16.2389 12.9714L16.1518 12.995H5.84798L5.76091 12.9714C5.57225 12.9188 5.42259 12.8335 5.29379 12.7057C5.1659 12.5769 5.08064 12.4272 5.02803 12.2385L5.00445 12.1515V1.8476L5.02803 1.76053C5.08064 1.57186 5.1659 1.4213 5.29288 1.29522C5.44708 1.14193 5.64844 1.03944 5.85706 1.00951C5.88699 1.00497 8.17724 1.00225 11.0317 1.00316L16.1518 1.00406L16.2389 1.02765ZM1.77089 4.01177C1.55774 4.03626 1.32644 4.1052 1.12236 4.20497C0.713291 4.40633 0.410343 4.70837 0.206262 5.11835C0.104674 5.32334 0.036647 5.55554 0.0121572 5.78139C-0.00144824 5.90565 -0.00144824 16.0934 0.0121572 16.2177C0.066579 16.7156 0.316919 17.1909 0.69515 17.5138C0.829391 17.6281 0.960003 17.7143 1.12236 17.7932C1.33461 17.8975 1.55229 17.961 1.78449 17.9882C1.9015 18.0009 12.0974 18.0009 12.2181 17.9873C12.6135 17.9437 12.9972 17.7769 13.3047 17.5138C13.5115 17.3369 13.6684 17.1329 13.7945 16.8771C13.8979 16.6667 13.9632 16.4435 13.9877 16.2177C14.0013 16.0998 14.0004 15.4549 13.9877 15.3923C13.9523 15.2218 13.809 15.0694 13.6357 15.0186C13.5795 15.0022 13.4434 14.9995 13.3809 15.014C13.2548 15.0422 13.1233 15.1456 13.0616 15.2626C13.0063 15.3696 13.0063 15.3669 12.9999 15.775C12.9936 16.1406 12.9936 16.1542 12.9709 16.2385C12.921 16.4245 12.8348 16.5759 12.706 16.7057C12.5772 16.8335 12.4276 16.9188 12.2389 16.9714L12.1518 16.995H1.84798L1.76091 16.9714C1.57225 16.9188 1.42259 16.8335 1.29379 16.7057C1.1659 16.5769 1.08064 16.4272 1.02803 16.2385L1.00445 16.1515V5.8476L1.02803 5.76053C1.08064 5.57187 1.1659 5.4222 1.29288 5.29522C1.4235 5.16461 1.57497 5.07844 1.76091 5.02855C1.84526 5.00588 1.85887 5.00588 2.2244 4.99953C2.48563 4.99499 2.6117 4.98955 2.6371 4.9823C2.76771 4.94057 2.88653 4.84171 2.94368 4.72651C2.9854 4.64125 2.99447 4.59771 2.99538 4.49522C2.99538 4.35554 2.95003 4.2476 2.84935 4.14601C2.78313 4.0798 2.69334 4.02991 2.60717 4.01177C2.55003 3.99998 1.8752 3.99998 1.77089 4.01177Z" fill="#4759F5"/>
</svg>
