<svg width="24" height="25" viewBox="0 0 24 25" fill="none" xmlns="http://www.w3.org/2000/svg">
<path fill-rule="evenodd" clip-rule="evenodd" d="M9.99998 6.5C9.99998 5.39543 10.8954 4.5 12 4.5C13.1045 4.5 14 5.39543 14 6.5H12.5C12.2238 6.5 12 6.72386 12 7C12 7.27614 12.2238 7.5 12.5 7.5H14V8.5H12.5C12.2238 8.5 12 8.72386 12 9C12 9.27614 12.2238 9.5 12.5 9.5H14V11.5C14 12.6046 13.1045 13.5 12 13.5C10.8954 13.5 9.99998 12.6046 9.99998 11.5V6.5ZM15 9V11.5C15 13.1569 13.6568 14.5 12 14.5C10.3431 14.5 8.99998 13.1569 8.99998 11.5V6.5C8.99998 4.84315 10.3431 3.5 12 3.5C13.6568 3.5 15 4.84315 15 6.5V7V9ZM7.47245 11.503C7.74692 11.4727 7.99402 11.6706 8.02436 11.9451C8.24539 13.9445 9.94135 15.5 11.9999 15.5C14.0585 15.5 15.7545 13.9445 15.9755 11.9451C16.0058 11.6706 16.2529 11.4727 16.5274 11.503C16.8019 11.5334 16.9998 11.7805 16.9694 12.0549C16.7111 14.3915 14.8439 16.2426 12.5 16.4753V20.5H14.5C14.7761 20.5 15 20.7239 15 21C15 21.2761 14.7761 21.5 14.5 21.5H12H9.49998C9.22383 21.5 8.99998 21.2761 8.99998 21C8.99998 20.7239 9.22383 20.5 9.49998 20.5H11.5V16.4753C9.15603 16.2427 7.28871 14.3915 7.03041 12.0549C7.00007 11.7805 7.19798 11.5334 7.47245 11.503Z" fill="#525365"/>
</svg>
