<svg width="24" height="25" viewBox="0 0 24 25" fill="none" xmlns="http://www.w3.org/2000/svg">
<path fill-rule="evenodd" clip-rule="evenodd" d="M2.85355 2.64645C2.65829 2.45118 2.34171 2.45118 2.14645 2.64645C1.95118 2.84171 1.95118 3.15829 2.14645 3.35355L21.1464 22.3536C21.3417 22.5488 21.6583 22.5488 21.8536 22.3536C22.0488 22.1583 22.0488 21.8417 21.8536 21.6464L15.386 15.1789C16.2502 14.383 16.8333 13.2864 16.9694 12.0549C16.9998 11.7805 16.8019 11.5334 16.5274 11.503C16.2529 11.4727 16.0058 11.6706 15.9755 11.945C15.865 12.9441 15.3863 13.8323 14.6782 14.4711L13.9698 13.7627C14.601 13.2127 15 12.4029 15 11.5V6.49999C15 4.84313 13.6568 3.49999 12 3.49999C10.3431 3.49999 8.99997 4.84313 8.99997 6.49999V8.79286L2.85355 2.64645ZM9.99997 9.79286L13.2602 13.0531C13.7116 12.6864 14 12.1269 14 11.5V9.49999H12.5C12.2238 9.49999 12 9.27613 12 8.99999C12 8.72384 12.2238 8.49999 12.5 8.49999H14V7.49999H12.5C12.2238 7.49999 12 7.27613 12 6.99999C12 6.72384 12.2238 6.49999 12.5 6.49999H14C14 5.39542 13.1045 4.49999 12 4.49999C10.8954 4.49999 9.99997 5.39542 9.99997 6.49999V9.79286Z" fill="#525365"/>
<path d="M11.8845 14.498L9.0022 11.6157C9.06144 13.1807 10.3195 14.4388 11.8845 14.498Z" fill="#525365"/>
<path d="M12.8055 15.4189L13.6188 16.2322C13.2623 16.3541 12.8877 16.4369 12.5 16.4754V20.5001H14.5C14.7761 20.5001 15 20.7239 15 21.0001C15 21.2762 14.7761 21.5001 14.5 21.5001H9.49998C9.22383 21.5001 8.99998 21.2762 8.99998 21.0001C8.99998 20.7239 9.22383 20.5001 9.49998 20.5001H11.5V16.4754C9.15603 16.2427 7.28871 14.3916 7.03041 12.055C7.00007 11.7806 7.19798 11.5335 7.47245 11.5031C7.74692 11.4728 7.99402 11.6707 8.02436 11.9451C8.24539 13.9446 9.94135 15.5001 11.9999 15.5001C12.2759 15.5001 12.5453 15.4721 12.8055 15.4189Z" fill="#525365"/>
</svg>
