<svg width="24" height="25" viewBox="0 0 24 25" fill="none" xmlns="http://www.w3.org/2000/svg">
<path fill-rule="evenodd" clip-rule="evenodd" d="M12 19.5C12.8284 19.5 13.5 18.8284 13.5 18C13.5 17.1716 12.8284 16.5 12 16.5C11.1716 16.5 10.5 17.1716 10.5 18C10.5 18.8284 11.1716 19.5 12 19.5ZM12 20.5C13.3807 20.5 14.5 19.3807 14.5 18C14.5 16.6193 13.3807 15.5 12 15.5C10.6193 15.5 9.5 16.6193 9.5 18C9.5 19.3807 10.6193 20.5 12 20.5Z" fill="#525365"/>
<path fill-rule="evenodd" clip-rule="evenodd" d="M18 19.5C18.8284 19.5 19.5 18.8284 19.5 18C19.5 17.1716 18.8284 16.5 18 16.5C17.1716 16.5 16.5 17.1716 16.5 18C16.5 18.8284 17.1716 19.5 18 19.5ZM18 20.5C19.3807 20.5 20.5 19.3807 20.5 18C20.5 16.6193 19.3807 15.5 18 15.5C16.6193 15.5 15.5 16.6193 15.5 18C15.5 19.3807 16.6193 20.5 18 20.5Z" fill="#525365"/>
<path fill-rule="evenodd" clip-rule="evenodd" d="M6 19.5C6.82843 19.5 7.5 18.8284 7.5 18C7.5 17.1716 6.82843 16.5 6 16.5C5.17157 16.5 4.5 17.1716 4.5 18C4.5 18.8284 5.17157 19.5 6 19.5ZM6 20.5C7.38071 20.5 8.5 19.3807 8.5 18C8.5 16.6193 7.38071 15.5 6 15.5C4.61929 15.5 3.5 16.6193 3.5 18C3.5 19.3807 4.61929 20.5 6 20.5Z" fill="#525365"/>
<path d="M5.5 5C5.5 4.72386 5.72386 4.5 6 4.5C6.27614 4.5 6.5 4.72386 6.5 5V14C6.5 14.2761 6.27614 14.5 6 14.5C5.72386 14.5 5.5 14.2761 5.5 14V5Z" fill="#525365"/>
<path d="M11.5 5C11.5 4.72386 11.7239 4.5 12 4.5C12.2761 4.5 12.5 4.72386 12.5 5V14C12.5 14.2761 12.2761 14.5 12 14.5C11.7239 14.5 11.5 14.2761 11.5 14V5Z" fill="#525365"/>
<path d="M17.5 5C17.5 4.72386 17.7239 4.5 18 4.5C18.2761 4.5 18.5 4.72386 18.5 5V14C18.5 14.2761 18.2761 14.5 18 14.5C17.7239 14.5 17.5 14.2761 17.5 14V5Z" fill="#525365"/>
</svg>
