<svg width="24" height="25" viewBox="0 0 24 25" fill="none" xmlns="http://www.w3.org/2000/svg">
<path fill-rule="evenodd" clip-rule="evenodd" d="M18.2002 19.5C19.0286 19.5 19.7002 18.8284 19.7002 18C19.7002 17.1716 19.0286 16.5 18.2002 16.5C17.3718 16.5 16.7002 17.1716 16.7002 18C16.7002 18.8284 17.3718 19.5 18.2002 19.5ZM18.2002 20.5C19.5809 20.5 20.7002 19.3807 20.7002 18C20.7002 16.6193 19.5809 15.5 18.2002 15.5C16.8195 15.5 15.7002 16.6193 15.7002 18C15.7002 19.3807 16.8195 20.5 18.2002 20.5Z" fill="#525365"/>
<path fill-rule="evenodd" clip-rule="evenodd" d="M6.2002 5.5C7.02862 5.5 7.7002 6.17157 7.7002 7C7.7002 7.82843 7.02862 8.5 6.2002 8.5C5.37177 8.5 4.7002 7.82843 4.7002 7C4.7002 6.17157 5.37177 5.5 6.2002 5.5ZM6.2002 4.5C7.58091 4.5 8.7002 5.61929 8.7002 7C8.7002 8.38071 7.58091 9.5 6.2002 9.5C4.81948 9.5 3.7002 8.38071 3.7002 7C3.7002 5.61929 4.81948 4.5 6.2002 4.5Z" fill="#525365"/>
<path d="M5.7002 20C5.7002 20.2761 5.92405 20.5 6.2002 20.5C6.47634 20.5 6.7002 20.2761 6.7002 20V11C6.7002 10.7239 6.47634 10.5 6.2002 10.5C5.92405 10.5 5.7002 10.7239 5.7002 11V20Z" fill="#525365"/>
<path fill-rule="evenodd" clip-rule="evenodd" d="M12.2002 19.5C11.3718 19.5 10.7002 18.8284 10.7002 18C10.7002 17.1716 11.3718 16.5 12.2002 16.5C13.0286 16.5 13.7002 17.1716 13.7002 18C13.7002 18.8284 13.0286 19.5 12.2002 19.5ZM12.2002 20.5C10.8195 20.5 9.7002 19.3807 9.7002 18C9.7002 16.6193 10.8195 15.5 12.2002 15.5C13.5809 15.5 14.7002 16.6193 14.7002 18C14.7002 19.3807 13.5809 20.5 12.2002 20.5Z" fill="#525365"/>
<path d="M12.7002 5C12.7002 4.72386 12.4763 4.5 12.2002 4.5C11.9241 4.5 11.7002 4.72386 11.7002 5V14C11.7002 14.2761 11.9241 14.5 12.2002 14.5C12.4763 14.5 12.7002 14.2761 12.7002 14V5Z" fill="#525365"/>
<path d="M17.7002 5C17.7002 4.72386 17.9241 4.5 18.2002 4.5C18.4763 4.5 18.7002 4.72386 18.7002 5V14C18.7002 14.2761 18.4763 14.5 18.2002 14.5C17.9241 14.5 17.7002 14.2761 17.7002 14V5Z" fill="#525365"/>
</svg>
