<svg width="24" height="25" viewBox="0 0 24 25" fill="none" xmlns="http://www.w3.org/2000/svg">
<path fill-rule="evenodd" clip-rule="evenodd" d="M12.7406 5.0617C12.9006 5.14951 13 5.31751 13 5.5V19.5C13 19.6825 12.9006 19.8505 12.7406 19.9383C12.5806 20.0261 12.3855 20.0198 12.2316 19.9218L6.8544 16.5H4C2.89543 16.5 2 15.6046 2 14.5V10.5C2 9.39543 2.89543 8.5 4 8.5H6.8544L12.2316 5.07817C12.3855 4.98019 12.5806 4.97388 12.7406 5.0617ZM12 6.41084L7.26844 9.42183C7.18821 9.47288 7.09509 9.5 7 9.5H4C3.44772 9.5 3 9.94772 3 10.5V14.5C3 15.0523 3.44772 15.5 4 15.5H7C7.09509 15.5 7.18821 15.5271 7.26844 15.5782L12 18.5892V6.41084Z" fill="#525365"/>
<path d="M21.5353 9.07809C21.7306 9.27335 21.7306 9.58994 21.5353 9.7852L18.7069 12.6136L21.5353 15.442C21.7306 15.6373 21.7306 15.9538 21.5353 16.1491C21.3401 16.3444 21.0235 16.3444 20.8282 16.1491L17.9998 13.3207L15.1714 16.1491C14.9761 16.3444 14.6595 16.3444 14.4643 16.1491C14.269 15.9538 14.269 15.6373 14.4643 15.442L17.2927 12.6136L14.4643 9.7852C14.269 9.58994 14.269 9.27335 14.4643 9.07809C14.6595 8.88283 14.9761 8.88283 15.1714 9.07809L17.9998 11.9065L20.8282 9.07809C21.0235 8.88283 21.3401 8.88283 21.5353 9.07809Z" fill="#525365"/>
</svg>
