<svg width="24" height="25" viewBox="0 0 24 25" fill="none" xmlns="http://www.w3.org/2000/svg">
<path fill-rule="evenodd" clip-rule="evenodd" d="M13 5.5C13 5.31751 12.9006 5.14951 12.7406 5.0617C12.5806 4.97388 12.3855 4.98019 12.2316 5.07817L6.8544 8.5H4C2.89543 8.5 2 9.39543 2 10.5V14.5C2 15.6046 2.89543 16.5 4 16.5H6.8544L12.2316 19.9218C12.3855 20.0198 12.5806 20.0261 12.7406 19.9383C12.9006 19.8505 13 19.6825 13 19.5V5.5ZM7.26844 9.42183L12 6.41084V18.5892L7.26844 15.5782C7.18821 15.5271 7.09509 15.5 7 15.5H4C3.44772 15.5 3 15.0523 3 14.5V10.5C3 9.94772 3.44772 9.5 4 9.5H7C7.09509 9.5 7.18821 9.47288 7.26844 9.42183ZM19.4394 5.81749C19.2548 5.61212 18.9387 5.59527 18.7333 5.77987C18.528 5.96446 18.5111 6.2806 18.6957 6.48597C20.1287 8.08027 21 10.1878 21 12.5C21 14.8122 20.1287 16.9198 18.6957 18.5141C18.5111 18.7195 18.528 19.0356 18.7333 19.2202C18.9387 19.4048 19.2548 19.3879 19.4394 19.1826C21.031 17.4118 22 15.0685 22 12.5C22 9.93155 21.031 7.58821 19.4394 5.81749ZM16.6121 7.89269C16.8218 7.71299 17.1374 7.73729 17.3171 7.94697C18.366 9.17073 19 10.7619 19 12.5C19 14.2387 18.3655 15.8304 17.316 17.0544C17.1362 17.264 16.8206 17.2882 16.6109 17.1085C16.4013 16.9287 16.3771 16.6131 16.5568 16.4034C17.4568 15.3539 18 13.991 18 12.5C18 11.0095 17.4572 9.6471 16.5578 8.59771C16.3781 8.38804 16.4024 8.07239 16.6121 7.89269ZM15.1956 10.0939C15.0294 9.87339 14.7159 9.82942 14.4954 9.99566C14.2749 10.1619 14.2309 10.4754 14.3972 10.6959C14.7757 11.198 15 11.8221 15 12.5C15 13.176 14.777 13.7984 14.4004 14.2998C14.2345 14.5206 14.2791 14.834 14.4998 14.9999C14.7206 15.1657 15.0341 15.1212 15.1999 14.9004C15.7022 14.2318 16 13.4 16 12.5C16 11.5975 15.7005 10.7634 15.1956 10.0939Z" fill="#525365"/>
</svg>
