<svg width="20" height="12" viewBox="0 0 20 12" fill="none" xmlns="http://www.w3.org/2000/svg">
<path d="M9.73227 0.00531634C9.47467 0.0107585 9.43295 0.0134796 9.1427 0.0370624C8.78442 0.0660873 8.31367 0.135022 7.9436 0.212119C5.52093 0.719149 3.3622 2.1196 1.90279 4.13139C0.90959 5.5001 0.285554 7.08196 0.077844 8.75724C0.0207011 9.21711 0.00346754 9.51371 0.00165348 10.1223C-0.000160576 10.5396 0.000746453 10.5804 0.016166 10.6303C0.0433768 10.7173 0.0860072 10.789 0.150406 10.8534C0.218434 10.9223 0.310044 10.9713 0.398932 10.9885C0.438842 10.9958 1.28691 10.9976 3.53272 10.9958L6.61208 10.9931L6.67195 10.9695C6.86061 10.896 6.98397 10.7282 6.99485 10.5305C7.0012 10.4271 6.9876 10.3636 6.94224 10.2729C6.87694 10.1414 6.73725 10.0362 6.59485 10.0099C6.55676 10.0026 5.73317 9.99987 3.77036 9.99987H0.999386L1.00483 9.7577C1.04383 8.07879 1.55721 6.45157 2.49417 5.03389C2.71911 4.69466 3.05199 4.25928 3.24882 4.04976L3.29598 3.99987L4.25562 4.9586C5.20347 5.90645 5.21617 5.91824 5.28329 5.94908C5.48555 6.0425 5.71231 6.00078 5.86106 5.84296C6.00528 5.69058 6.03884 5.47833 5.94905 5.28332C5.91821 5.2162 5.90642 5.2035 4.95857 4.25566L3.99984 3.29602L4.04973 3.24885C4.12229 3.18083 4.3427 2.99761 4.4851 2.88786C5.66696 1.97176 7.0402 1.36949 8.50143 1.12459C8.80528 1.0738 9.0139 1.05021 9.44474 1.01665L9.50097 1.01212V2.28831C9.50097 3.67516 9.49825 3.60713 9.55086 3.71688C9.60165 3.82482 9.70868 3.92278 9.82478 3.96904C9.87104 3.98718 9.89281 3.9899 9.99984 3.9899C10.1069 3.9899 10.1286 3.98718 10.1749 3.96904C10.291 3.92278 10.398 3.82482 10.4488 3.71688C10.5014 3.60713 10.4987 3.67516 10.4987 2.28831V1.01031L10.5558 1.01575C10.5867 1.01847 10.6874 1.02663 10.7799 1.03389C12.4778 1.17176 14.1395 1.8221 15.5146 2.88786C15.657 2.99761 15.8774 3.18083 15.95 3.24885L15.9998 3.29602L15.0411 4.25566C14.0933 5.2035 14.0815 5.2162 14.0506 5.28332C13.852 5.71416 14.2856 6.14772 14.7164 5.94908C14.7835 5.91824 14.7962 5.90645 15.7441 4.9586L16.7037 3.99987L16.7509 4.04976C16.7772 4.07788 16.8479 4.15951 16.9078 4.23117C17.7822 5.27969 18.4089 6.51144 18.7345 7.823C18.8933 8.46337 18.9785 9.10101 18.9949 9.75226L19.0003 9.99987H16.2293C14.2665 9.99987 13.4429 10.0026 13.4048 10.0099C13.2624 10.0362 13.1227 10.1414 13.0574 10.2729C13.0121 10.3636 12.9985 10.4271 13.0048 10.5305C13.0157 10.7273 13.1373 10.8933 13.3241 10.9677L13.3876 10.9931L16.467 10.9958C18.7128 10.9976 19.5608 10.9958 19.6007 10.9885C19.7758 10.9559 19.9264 10.8144 19.9835 10.6303C19.9989 10.5804 19.9998 10.5396 19.998 10.1187C19.9953 9.5128 19.979 9.21801 19.9218 8.75724C19.6107 6.24205 18.3463 3.93275 16.3917 2.31008C15.0348 1.18355 13.423 0.438876 11.7005 0.144999C11.2144 0.0624592 10.7645 0.0171077 10.3309 0.00894446C10.2066 0.00622337 10.0778 0.00259526 10.0452 0.00168823C10.0125 -0.000125832 9.87195 0.00168823 9.73227 0.00531634ZM12.8769 2.51688C12.7835 2.54137 12.7264 2.57493 12.6529 2.6484C12.6012 2.69919 12.1649 3.32142 10.4851 5.73865C8.93408 7.96994 8.36628 8.79352 8.32456 8.87244C8.22841 9.05384 8.17036 9.22527 8.13408 9.43298C8.11322 9.55724 8.11322 9.84205 8.13499 9.96813C8.26106 10.7164 8.79258 11.2715 9.53453 11.4303C9.64338 11.4538 9.66424 11.4557 9.87739 11.4548C10.0896 11.4548 10.1114 11.4529 10.2202 11.4303C10.7699 11.3133 11.2107 10.9758 11.4547 10.4842C11.4819 10.4298 11.5164 10.3482 11.5327 10.3037C11.5481 10.2584 11.9962 8.61756 12.5277 6.65747C13.2107 4.13502 13.4946 3.0747 13.4983 3.02935C13.5155 2.7899 13.3422 2.56223 13.1037 2.51235C13.0221 2.49511 12.9568 2.49602 12.8769 2.51688ZM11.1835 7.79579C10.8661 8.96586 10.5985 9.94636 10.5885 9.97448C10.5196 10.1613 10.3527 10.3309 10.1631 10.4071C9.78397 10.5577 9.35676 10.3899 9.18714 10.0226C9.13544 9.91008 9.11821 9.83117 9.11821 9.70055C9.11821 9.56359 9.13816 9.47924 9.1953 9.36586C9.21798 9.32051 9.73862 8.56405 10.4942 7.47833C11.188 6.48151 11.7568 5.6679 11.7568 5.6679C11.7568 5.6679 11.5001 6.62663 11.1835 7.79579Z" fill="url(#paint0_linear_1006_6854)"/>
<defs>
<linearGradient id="paint0_linear_1006_6854" x1="-0.0508311" y1="-0.519659" x2="20.2532" y2="-1.55207" gradientUnits="userSpaceOnUse">
<stop stop-color="#3719E2"/>
<stop offset="0.630799" stop-color="#192EE3"/>
<stop offset="1" stop-color="#1579E3"/>
</linearGradient>
</defs>
</svg>
