<svg width="18" height="18" viewBox="0 0 18 18" fill="none" xmlns="http://www.w3.org/2000/svg">
<path d="M1.77101 0.0123824C1.26035 0.0704323 0.772369 0.337099 0.453094 0.732564C0.224523 1.01556 0.0866545 1.32304 0.0231625 1.68948C0.00774297 1.78109 0.00683594 2.07497 0.00683594 9.00014C0.00683594 15.9253 0.00774297 16.2192 0.0231625 16.3108C0.122029 16.8859 0.424977 17.3548 0.901167 17.6704C1.13337 17.8246 1.38733 17.9235 1.68938 17.977C1.78189 17.9924 2.02407 17.9933 9.00003 17.9933C15.9252 17.9933 16.2191 17.9924 16.3107 17.977C16.5982 17.9271 16.8594 17.8274 17.0835 17.6813C17.5678 17.3657 17.8762 16.8913 17.9769 16.3108C17.9923 16.2192 17.9932 15.9253 17.9932 9.00014C17.9932 2.07497 17.9923 1.78109 17.9769 1.68948C17.8744 1.09628 17.5524 0.611929 17.0508 0.298097C16.8477 0.170206 16.6145 0.0813166 16.3424 0.0278019L16.2427 0.00784722L9.04085 0.00603316C5.07985 0.00512613 1.8082 0.00784722 1.77101 0.0123824ZM16.2109 1.02009C16.3706 1.06091 16.4939 1.11896 16.6064 1.20422C16.8023 1.35388 16.9338 1.56794 16.9837 1.81646C17.0009 1.90354 17.0009 16.0967 16.9837 16.1838C16.9012 16.5938 16.5955 16.9013 16.1882 16.9829C16.093 17.002 1.90706 17.002 1.81182 16.9829C1.40457 16.9013 1.0989 16.5938 1.01636 16.1838C0.999126 16.0967 0.999126 1.90354 1.01636 1.81646C1.06625 1.56794 1.19777 1.35388 1.39368 1.20422C1.51704 1.1108 1.67305 1.04186 1.81727 1.01828C1.85445 1.01284 1.89074 1.00649 1.89799 1.00467C1.90525 1.00377 5.11613 1.00286 9.03178 1.00377C15.6486 1.00558 16.1565 1.00649 16.2109 1.02009Z" fill="white"/>
</svg>
