<svg width="24" height="24" viewBox="0 0 24 24" fill="none" xmlns="http://www.w3.org/2000/svg">
<path d="M3 3.25C3 2.55964 3.55964 2 4.25 2H15.75C16.4404 2 17 2.55964 17 3.25V8.75C17 8.88807 16.8881 9 16.75 9H13.25C12.0074 9 11 10.0074 11 11.25V11.75C11 11.8801 10.9034 12 10.7733 12H4.25C3.55964 12 3 11.4404 3 10.75V3.25Z" fill="white"/>
<path d="M2 13.5C2 13.2239 2.22386 13 2.5 13H8.5C8.77614 13 9 13.2239 9 13.5C9 13.7761 8.77614 14 8.5 14H2.5C2.22386 14 2 13.7761 2 13.5Z" fill="white"/>
<path d="M12 11.25C12 10.5596 12.5596 10 13.25 10H18.75C19.4404 10 20 10.5596 20 11.25V11.75C20 11.8881 19.8881 12 19.75 12H12.25C12.1119 12 12 11.8881 12 11.75V11.25Z" fill="white"/>
<path fill-rule="evenodd" clip-rule="evenodd" d="M10 14.25C10 13.5596 10.5596 13 11.25 13H20.75C21.4404 13 22 13.5596 22 14.25V18.75C22 19.4404 21.4404 20 20.75 20H20V17.5C20 16.6716 19.3284 16 18.5 16H13.5C12.6716 16 12 16.6716 12 17.5V20H11.25C10.5596 20 10 19.4404 10 18.75V14.25ZM12 14.5C12 14.2239 12.2239 14 12.5 14H13.5C13.7761 14 14 14.2239 14 14.5C14 14.7761 13.7761 15 13.5 15H12.5C12.2239 15 12 14.7761 12 14.5Z" fill="white"/>
<path fill-rule="evenodd" clip-rule="evenodd" d="M13.5 17C13.2239 17 13 17.2239 13 17.5V20.75C13 21.4404 13.5596 22 14.25 22H17.75C18.4404 22 19 21.4404 19 20.75V17.5C19 17.2239 18.7761 17 18.5 17H13.5ZM14 20.75V18H18V20.75C18 20.8881 17.8881 21 17.75 21H14.25C14.1119 21 14 20.8881 14 20.75Z" fill="white"/>
</svg>
