<svg width="24" height="25" viewBox="0 0 24 25" fill="none" xmlns="http://www.w3.org/2000/svg">
<path fill-rule="evenodd" clip-rule="evenodd" d="M2.93198 9.91844L12.0001 19.0786L21.0682 9.91844C19.9455 8.93533 18.6724 8.13994 17.2966 7.56431C15.6171 6.86156 13.8174 6.5 12.0001 6.5C10.1828 6.5 8.38302 6.86157 6.7035 7.56431C5.32777 8.13994 4.05459 8.93533 2.93198 9.91844ZM2.21936 9.21348C1.80858 9.57672 1.81074 10.2072 2.19652 10.5969L11.2894 19.7821C11.6807 20.1774 12.3194 20.1774 12.7107 19.7821L21.8036 10.5969C22.1894 10.2072 22.1915 9.57672 21.7808 9.21348C20.5643 8.13779 19.1803 7.26848 17.6826 6.64181C15.881 5.88799 13.9501 5.5 12.0001 5.5C10.05 5.5 8.1191 5.88799 6.3175 6.64181C4.81978 7.26848 3.43583 8.13779 2.21936 9.21348Z" fill="#525365"/>
</svg>
