<svg width="129" height="129" viewBox="0 0 129 129" fill="none" xmlns="http://www.w3.org/2000/svg">
<g opacity="0.5">
<path d="M0 64.5C0 28.8776 28.8776 0 64.5 0V0C100.122 0 129 28.8776 129 64.5V64.5C129 100.122 100.122 129 64.5 129V129C28.8776 129 0 100.122 0 64.5V64.5Z" fill="url(#paint0_radial_1203_13594)" fill-opacity="0.8"/>
</g>
<g opacity="0.4">
<path d="M18 65C18 39.5949 38.5949 19 64 19V19C89.4051 19 110 39.5949 110 65V65C110 90.4051 89.4051 111 64 111V111C38.5949 111 18 90.4051 18 65V65Z" fill="#4759F5"/>
<path d="M18 65C18 39.5949 38.5949 19 64 19V19C89.4051 19 110 39.5949 110 65V65C110 90.4051 89.4051 111 64 111V111C38.5949 111 18 90.4051 18 65V65Z" fill="url(#paint1_radial_1203_13594)" fill-opacity="0.8"/>
</g>
<path d="M40 65C40 51.7452 50.7452 41 64 41V41C77.2548 41 88 51.7452 88 65V65C88 78.2548 77.2548 89 64 89V89C50.7452 89 40 78.2548 40 65V65Z" fill="#4759F5"/>
<path d="M40 65C40 51.7452 50.7452 41 64 41V41C77.2548 41 88 51.7452 88 65V65C88 78.2548 77.2548 89 64 89V89C50.7452 89 40 78.2548 40 65V65Z" fill="url(#paint2_radial_1203_13594)" fill-opacity="0.8"/>
<g style="mix-blend-mode:screen" opacity="0.5">
<path d="M59.0803 61.9572C59.7671 61.5832 60.3314 61.0189 60.7055 60.332L61.7456 58.4793C61.7692 58.4351 61.8043 58.3981 61.8472 58.3724C61.8902 58.3466 61.9393 58.333 61.9894 58.333C62.0395 58.333 62.0886 58.3466 62.1315 58.3724C62.1745 58.3981 62.2096 58.4351 62.2332 58.4793L63.2408 60.3645C63.6148 61.0514 64.1791 61.6157 64.866 61.9897L66.6537 63.1111C66.6979 63.1347 66.7349 63.1698 66.7606 63.2127C66.7864 63.2557 66.8 63.3048 66.8 63.3549C66.8 63.405 66.7864 63.4541 66.7606 63.497C66.7349 63.54 66.6979 63.5751 66.6537 63.5987L64.7685 64.6063C64.0816 64.9803 63.5173 65.5447 63.1433 66.2315L62.1194 67.9867C62.0958 68.0309 62.0607 68.0679 62.0178 68.0936C61.9748 68.1194 61.9257 68.133 61.8756 68.133C61.8255 68.133 61.7764 68.1194 61.7335 68.0936C61.6905 68.0679 61.6554 68.0309 61.6318 67.9867L60.6242 66.1015C60.2502 65.4146 59.6859 64.8503 58.999 64.4763L57.1463 63.4362C57.1021 63.4126 57.0651 63.3775 57.0394 63.3345C57.0136 63.2916 57 63.2425 57 63.1924C57 63.1423 57.0136 63.0932 57.0394 63.0502C57.0651 63.0073 57.1021 62.9722 57.1463 62.9486L59.0803 61.9572Z" fill="url(#paint3_radial_1203_13594)"/>
<path d="M66.6468 66.7609C66.3796 67.2515 65.9765 67.6546 65.4859 67.9217L64.1045 68.6299C64.0729 68.6467 64.0465 68.6718 64.0281 68.7025C64.0097 68.7331 64 68.7682 64 68.804C64 68.8398 64.0097 68.8748 64.0281 68.9055C64.0465 68.9362 64.0729 68.9613 64.1045 68.9781L65.4279 69.7211C65.9185 69.9882 66.3216 70.3913 66.5887 70.8819L67.3085 72.2285C67.3253 72.2601 67.3504 72.2865 67.3811 72.3049C67.4117 72.3233 67.4468 72.333 67.4826 72.333C67.5184 72.333 67.5535 72.3233 67.5841 72.3049C67.6148 72.2865 67.6399 72.2601 67.6567 72.2285L68.3881 70.9748C68.6552 70.4842 69.0583 70.0811 69.5489 69.8139L70.8955 69.0942C70.9271 69.0774 70.9535 69.0523 70.9719 69.0216C70.9903 68.9909 71 68.9558 71 68.9201C71 68.8843 70.9903 68.8492 70.9719 68.8185C70.9535 68.7879 70.9271 68.7628 70.8955 68.7459L69.6186 67.9449C69.128 67.6778 68.7249 67.2747 68.4577 66.7841L67.738 65.4375C67.7211 65.4059 67.6961 65.3795 67.6654 65.3611C67.6347 65.3427 67.5996 65.333 67.5638 65.333C67.5281 65.333 67.493 65.3427 67.4623 65.3611C67.4316 65.3795 67.4066 65.4059 67.3897 65.4375L66.6468 66.7609Z" fill="url(#paint4_radial_1203_13594)"/>
</g>
<defs>
<radialGradient id="paint0_radial_1203_13594" cx="0" cy="0" r="1" gradientUnits="userSpaceOnUse" gradientTransform="translate(65 65) rotate(-141.34) scale(73.6359)">
<stop stop-color="#89A3F5" stop-opacity="0"/>
<stop offset="1" stop-color="#EFF0F9"/>
</radialGradient>
<radialGradient id="paint1_radial_1203_13594" cx="0" cy="0" r="1" gradientUnits="userSpaceOnUse" gradientTransform="translate(64 65) rotate(-143.276) scale(39.3001)">
<stop offset="0.805" stop-color="#C0C6F2"/>
<stop offset="1" stop-color="#EAEDF8"/>
</radialGradient>
<radialGradient id="paint2_radial_1203_13594" cx="0" cy="0" r="1" gradientUnits="userSpaceOnUse" gradientTransform="translate(64 65) rotate(-134.293) scale(28.64)">
<stop offset="0.62" stop-color="#CACFF6"/>
<stop offset="1" stop-color="white"/>
</radialGradient>
<radialGradient id="paint3_radial_1203_13594" cx="0" cy="0" r="1" gradientUnits="userSpaceOnUse" gradientTransform="translate(62 63.4995) rotate(46.9749) scale(10.2591)">
<stop offset="0.425613" stop-color="white"/>
<stop offset="1" stop-color="#88A7F5"/>
</radialGradient>
<radialGradient id="paint4_radial_1203_13594" cx="0" cy="0" r="1" gradientUnits="userSpaceOnUse" gradientTransform="translate(62 63.4995) rotate(46.9749) scale(10.2591)">
<stop offset="0.425613" stop-color="white"/>
<stop offset="1" stop-color="#88A7F5"/>
</radialGradient>
</defs>
</svg>
